<mxfile host="app.diagrams.net" modified="2024-05-17T08:26:31.564Z" agent="Mozilla/5.0 (Windows NT 10.0; Win64; x64) AppleWebKit/537.36 (KHTML, like Gecko) Chrome/124.0.0.0 Safari/537.36" etag="dg9JoTpEmOT2F7kZZ1K-" version="24.4.3" type="device">
  <diagram name="Trang-1" id="R2SSgekKrFJc0sKT6GDx">
    <mxGraphModel dx="1118" dy="561" grid="1" gridSize="1" guides="1" tooltips="1" connect="1" arrows="1" fold="1" page="1" pageScale="1" pageWidth="827" pageHeight="1169" math="0" shadow="0">
      <root>
        <mxCell id="0" />
        <mxCell id="1" parent="0" />
        <mxCell id="ekgqlXPSo2zlpU3kf7QV-1" value="Người dùng" style="shape=umlActor;verticalLabelPosition=bottom;verticalAlign=top;html=1;outlineConnect=0;fontFamily=Times New Roman;fontSize=14;" parent="1" vertex="1">
          <mxGeometry x="70" y="50" width="20" height="40" as="geometry" />
        </mxCell>
        <mxCell id="ekgqlXPSo2zlpU3kf7QV-2" value="Controller" style="rounded=0;whiteSpace=wrap;html=1;fontFamily=Times New Roman;fontSize=14;" parent="1" vertex="1">
          <mxGeometry x="220" y="50" width="120" height="60" as="geometry" />
        </mxCell>
        <mxCell id="ekgqlXPSo2zlpU3kf7QV-3" value="Service" style="rounded=0;whiteSpace=wrap;html=1;fontFamily=Times New Roman;fontSize=14;" parent="1" vertex="1">
          <mxGeometry x="437" y="50" width="120" height="60" as="geometry" />
        </mxCell>
        <mxCell id="ekgqlXPSo2zlpU3kf7QV-4" value="DB" style="rounded=0;whiteSpace=wrap;html=1;fontFamily=Times New Roman;fontSize=14;" parent="1" vertex="1">
          <mxGeometry x="640" y="50" width="120" height="60" as="geometry" />
        </mxCell>
        <mxCell id="ekgqlXPSo2zlpU3kf7QV-6" value="" style="endArrow=none;dashed=1;html=1;rounded=0;entryX=0.5;entryY=1;entryDx=0;entryDy=0;fontFamily=Times New Roman;fontSize=14;" parent="1" source="kYWd2Rs9Lv-a4wuV16s5-20" target="ekgqlXPSo2zlpU3kf7QV-2" edge="1">
          <mxGeometry width="50" height="50" relative="1" as="geometry">
            <mxPoint x="276" y="839" as="sourcePoint" />
            <mxPoint x="490" y="170" as="targetPoint" />
          </mxGeometry>
        </mxCell>
        <mxCell id="ekgqlXPSo2zlpU3kf7QV-7" value="" style="endArrow=none;dashed=1;html=1;rounded=0;entryX=0.5;entryY=1;entryDx=0;entryDy=0;fontFamily=Times New Roman;fontSize=14;" parent="1" edge="1">
          <mxGeometry width="50" height="50" relative="1" as="geometry">
            <mxPoint x="499" y="785.9642549402573" as="sourcePoint" />
            <mxPoint x="496.58000000000004" y="110" as="targetPoint" />
          </mxGeometry>
        </mxCell>
        <mxCell id="ekgqlXPSo2zlpU3kf7QV-8" value="" style="endArrow=none;dashed=1;html=1;rounded=0;entryX=0.5;entryY=1;entryDx=0;entryDy=0;fontFamily=Times New Roman;fontSize=14;" parent="1" source="kYWd2Rs9Lv-a4wuV16s5-12" edge="1">
          <mxGeometry width="50" height="50" relative="1" as="geometry">
            <mxPoint x="694" y="931" as="sourcePoint" />
            <mxPoint x="700" y="110" as="targetPoint" />
          </mxGeometry>
        </mxCell>
        <mxCell id="ekgqlXPSo2zlpU3kf7QV-49" value="" style="endArrow=none;dashed=1;html=1;rounded=0;entryX=0.5;entryY=1;entryDx=0;entryDy=0;fontFamily=Times New Roman;fontSize=14;" parent="1" edge="1">
          <mxGeometry width="50" height="50" relative="1" as="geometry">
            <mxPoint x="80" y="834.9820915670956" as="sourcePoint" />
            <mxPoint x="79.76" y="110" as="targetPoint" />
          </mxGeometry>
        </mxCell>
        <mxCell id="641vR3JIcgb_U33MpTuV-2" value="" style="endArrow=classic;html=1;rounded=0;fontFamily=Times New Roman;fontSize=14;exitX=0.975;exitY=0.087;exitDx=0;exitDy=0;exitPerimeter=0;" parent="1" edge="1">
          <mxGeometry width="50" height="50" relative="1" as="geometry">
            <mxPoint x="78" y="161.89999999999998" as="sourcePoint" />
            <mxPoint x="278.25" y="161" as="targetPoint" />
          </mxGeometry>
        </mxCell>
        <mxCell id="641vR3JIcgb_U33MpTuV-3" value="1. Yêu cầu thêm mới" style="text;html=1;strokeColor=none;fillColor=none;align=center;verticalAlign=middle;whiteSpace=wrap;rounded=0;fontFamily=Times New Roman;fontSize=14;" parent="1" vertex="1">
          <mxGeometry x="93.25" y="147" width="164" height="10" as="geometry" />
        </mxCell>
        <mxCell id="641vR3JIcgb_U33MpTuV-4" value="" style="rounded=0;whiteSpace=wrap;html=1;fontFamily=Times New Roman;fontSize=14;" parent="1" vertex="1">
          <mxGeometry x="275" y="163" width="10" height="63" as="geometry" />
        </mxCell>
        <mxCell id="641vR3JIcgb_U33MpTuV-10" value="4. Thông tin hợp đồng" style="text;html=1;strokeColor=none;fillColor=none;align=center;verticalAlign=middle;whiteSpace=wrap;rounded=0;fontFamily=Times New Roman;fontSize=14;" parent="1" vertex="1">
          <mxGeometry x="299" y="325" width="164" height="10" as="geometry" />
        </mxCell>
        <mxCell id="641vR3JIcgb_U33MpTuV-11" value="" style="endArrow=classic;html=1;rounded=0;fontFamily=Times New Roman;fontSize=14;exitX=0.975;exitY=0.087;exitDx=0;exitDy=0;exitPerimeter=0;entryX=0;entryY=0.012;entryDx=0;entryDy=0;entryPerimeter=0;" parent="1" target="641vR3JIcgb_U33MpTuV-31" edge="1">
          <mxGeometry width="50" height="50" relative="1" as="geometry">
            <mxPoint x="287" y="342.9" as="sourcePoint" />
            <mxPoint x="487.25" y="342" as="targetPoint" />
          </mxGeometry>
        </mxCell>
        <mxCell id="641vR3JIcgb_U33MpTuV-19" value="5. Xử lý dữ liệu thêm mới" style="text;html=1;strokeColor=none;fillColor=none;align=center;verticalAlign=middle;whiteSpace=wrap;rounded=0;fontFamily=Times New Roman;fontSize=14;" parent="1" vertex="1">
          <mxGeometry x="568" y="348" width="94" height="90" as="geometry" />
        </mxCell>
        <mxCell id="641vR3JIcgb_U33MpTuV-20" value="" style="endArrow=classic;html=1;rounded=0;exitX=0.995;exitY=0.095;exitDx=0;exitDy=0;exitPerimeter=0;fontFamily=Times New Roman;fontSize=14;" parent="1" edge="1">
          <mxGeometry width="50" height="50" relative="1" as="geometry">
            <mxPoint x="505.00000000000006" y="353.19999999999993" as="sourcePoint" />
            <mxPoint x="505.05" y="438" as="targetPoint" />
            <Array as="points">
              <mxPoint x="560.05" y="353" />
              <mxPoint x="560.05" y="438" />
            </Array>
          </mxGeometry>
        </mxCell>
        <mxCell id="641vR3JIcgb_U33MpTuV-21" value="2. Giao diện thêm mới" style="text;html=1;strokeColor=none;fillColor=none;align=center;verticalAlign=middle;whiteSpace=wrap;rounded=0;fontFamily=Times New Roman;fontSize=14;" parent="1" vertex="1">
          <mxGeometry x="100" y="208" width="176" height="10" as="geometry" />
        </mxCell>
        <mxCell id="641vR3JIcgb_U33MpTuV-22" value="" style="endArrow=classic;html=1;rounded=0;dashed=1;entryX=1.1;entryY=0.109;entryDx=0;entryDy=0;entryPerimeter=0;" parent="1" target="kYWd2Rs9Lv-a4wuV16s5-2" edge="1">
          <mxGeometry width="50" height="50" relative="1" as="geometry">
            <mxPoint x="277" y="227" as="sourcePoint" />
            <mxPoint x="85" y="221" as="targetPoint" />
          </mxGeometry>
        </mxCell>
        <mxCell id="641vR3JIcgb_U33MpTuV-25" value="9. Kết quả thêm mới" style="text;html=1;strokeColor=none;fillColor=none;align=center;verticalAlign=middle;whiteSpace=wrap;rounded=0;fontFamily=Times New Roman;fontSize=14;" parent="1" vertex="1">
          <mxGeometry x="82" y="722" width="187" height="10" as="geometry" />
        </mxCell>
        <mxCell id="641vR3JIcgb_U33MpTuV-26" value="" style="endArrow=classic;html=1;rounded=0;exitX=0.25;exitY=1;exitDx=0;exitDy=0;dashed=1;" parent="1" edge="1">
          <mxGeometry width="50" height="50" relative="1" as="geometry">
            <mxPoint x="276" y="737.1" as="sourcePoint" />
            <mxPoint x="80" y="738.28" as="targetPoint" />
          </mxGeometry>
        </mxCell>
        <mxCell id="641vR3JIcgb_U33MpTuV-31" value="" style="rounded=0;whiteSpace=wrap;html=1;fontFamily=Times New Roman;fontSize=14;" parent="1" vertex="1">
          <mxGeometry x="492" y="344.1" width="10" height="163.9" as="geometry" />
        </mxCell>
        <mxCell id="kYWd2Rs9Lv-a4wuV16s5-2" value="" style="rounded=0;whiteSpace=wrap;html=1;fontFamily=Times New Roman;fontSize=14;" parent="1" vertex="1">
          <mxGeometry x="75" y="157" width="10" height="642" as="geometry" />
        </mxCell>
        <mxCell id="kYWd2Rs9Lv-a4wuV16s5-4" value="3. Thông tin hợp đồng" style="text;html=1;strokeColor=none;fillColor=none;align=center;verticalAlign=middle;whiteSpace=wrap;rounded=0;fontFamily=Times New Roman;fontSize=14;" parent="1" vertex="1">
          <mxGeometry x="94" y="265" width="164" height="10" as="geometry" />
        </mxCell>
        <mxCell id="kYWd2Rs9Lv-a4wuV16s5-5" value="" style="endArrow=classic;html=1;rounded=0;fontFamily=Times New Roman;fontSize=14;exitX=0.975;exitY=0.087;exitDx=0;exitDy=0;exitPerimeter=0;" parent="1" edge="1">
          <mxGeometry width="50" height="50" relative="1" as="geometry">
            <mxPoint x="82" y="282.9" as="sourcePoint" />
            <mxPoint x="282.25" y="282" as="targetPoint" />
          </mxGeometry>
        </mxCell>
        <mxCell id="641vR3JIcgb_U33MpTuV-8" value="" style="rounded=0;whiteSpace=wrap;html=1;fontFamily=Times New Roman;fontSize=14;" parent="1" vertex="1">
          <mxGeometry x="274" y="284.1" width="10" height="60" as="geometry" />
        </mxCell>
        <mxCell id="kYWd2Rs9Lv-a4wuV16s5-9" value="6. Yêu cầu thêm mới" style="text;html=1;strokeColor=none;fillColor=none;align=center;verticalAlign=middle;whiteSpace=wrap;rounded=0;fontFamily=Times New Roman;fontSize=14;" parent="1" vertex="1">
          <mxGeometry x="512" y="486" width="164" height="10" as="geometry" />
        </mxCell>
        <mxCell id="kYWd2Rs9Lv-a4wuV16s5-10" value="" style="endArrow=classic;html=1;rounded=0;fontFamily=Times New Roman;fontSize=14;exitX=0.975;exitY=0.087;exitDx=0;exitDy=0;exitPerimeter=0;" parent="1" edge="1">
          <mxGeometry width="50" height="50" relative="1" as="geometry">
            <mxPoint x="500" y="503.9" as="sourcePoint" />
            <mxPoint x="700.25" y="503" as="targetPoint" />
          </mxGeometry>
        </mxCell>
        <mxCell id="kYWd2Rs9Lv-a4wuV16s5-13" value="" style="endArrow=none;dashed=1;html=1;rounded=0;entryX=0.5;entryY=1;entryDx=0;entryDy=0;fontFamily=Times New Roman;fontSize=14;" parent="1" target="kYWd2Rs9Lv-a4wuV16s5-12" edge="1">
          <mxGeometry width="50" height="50" relative="1" as="geometry">
            <mxPoint x="694.5897962997572" y="813" as="sourcePoint" />
            <mxPoint x="700" y="110" as="targetPoint" />
          </mxGeometry>
        </mxCell>
        <mxCell id="kYWd2Rs9Lv-a4wuV16s5-12" value="" style="rounded=0;whiteSpace=wrap;html=1;fontFamily=Times New Roman;fontSize=14;" parent="1" vertex="1">
          <mxGeometry x="693" y="506" width="10" height="78.9" as="geometry" />
        </mxCell>
        <mxCell id="kYWd2Rs9Lv-a4wuV16s5-14" value="7. Kết quả thêm mới" style="text;html=1;strokeColor=none;fillColor=none;align=center;verticalAlign=middle;whiteSpace=wrap;rounded=0;fontFamily=Times New Roman;fontSize=14;" parent="1" vertex="1">
          <mxGeometry x="503" y="569.72" width="187" height="10" as="geometry" />
        </mxCell>
        <mxCell id="kYWd2Rs9Lv-a4wuV16s5-15" value="" style="endArrow=classic;html=1;rounded=0;exitX=0.25;exitY=1;exitDx=0;exitDy=0;dashed=1;" parent="1" edge="1">
          <mxGeometry width="50" height="50" relative="1" as="geometry">
            <mxPoint x="697" y="584.82" as="sourcePoint" />
            <mxPoint x="501" y="586" as="targetPoint" />
          </mxGeometry>
        </mxCell>
        <mxCell id="kYWd2Rs9Lv-a4wuV16s5-16" value="" style="rounded=0;whiteSpace=wrap;html=1;fontFamily=Times New Roman;fontSize=14;" parent="1" vertex="1">
          <mxGeometry x="494" y="585" width="10" height="78.9" as="geometry" />
        </mxCell>
        <mxCell id="kYWd2Rs9Lv-a4wuV16s5-18" value="8. Kết quả thêm mới" style="text;html=1;strokeColor=none;fillColor=none;align=center;verticalAlign=middle;whiteSpace=wrap;rounded=0;fontFamily=Times New Roman;fontSize=14;" parent="1" vertex="1">
          <mxGeometry x="301" y="647" width="187" height="10" as="geometry" />
        </mxCell>
        <mxCell id="kYWd2Rs9Lv-a4wuV16s5-19" value="" style="endArrow=classic;html=1;rounded=0;exitX=0.25;exitY=1;exitDx=0;exitDy=0;dashed=1;entryX=0.58;entryY=0.091;entryDx=0;entryDy=0;entryPerimeter=0;" parent="1" target="kYWd2Rs9Lv-a4wuV16s5-20" edge="1">
          <mxGeometry width="50" height="50" relative="1" as="geometry">
            <mxPoint x="495" y="662.1" as="sourcePoint" />
            <mxPoint x="299" y="663.28" as="targetPoint" />
          </mxGeometry>
        </mxCell>
        <mxCell id="kYWd2Rs9Lv-a4wuV16s5-21" value="" style="endArrow=none;dashed=1;html=1;rounded=0;entryX=0.5;entryY=1;entryDx=0;entryDy=0;fontFamily=Times New Roman;fontSize=14;" parent="1" target="kYWd2Rs9Lv-a4wuV16s5-20" edge="1">
          <mxGeometry width="50" height="50" relative="1" as="geometry">
            <mxPoint x="276" y="839" as="sourcePoint" />
            <mxPoint x="280" y="110" as="targetPoint" />
          </mxGeometry>
        </mxCell>
        <mxCell id="kYWd2Rs9Lv-a4wuV16s5-20" value="" style="rounded=0;whiteSpace=wrap;html=1;fontFamily=Times New Roman;fontSize=14;" parent="1" vertex="1">
          <mxGeometry x="272" y="656" width="10" height="78.9" as="geometry" />
        </mxCell>
      </root>
    </mxGraphModel>
  </diagram>
</mxfile>
